<?xml version="1.0" standalone="no"?>

<!DOCTYPE svg PUBLIC "-//W3C//DTD SVG 20010904//EN"

 "http://www.w3.org/TR/2001/REC-SVG-20010904/DTD/svg10.dtd">

<svg version="1.0" xmlns="http://www.w3.org/2000/svg"

 width="1536.000000pt" height="1024.000000pt" viewBox="0 0 1536.000000 1024.000000"

 preserveAspectRatio="xMidYMid meet">

<path stroke="#000000" fill="none" d="
M871 655

C867 661 848 657 841 657

L763 657

L763 657

C757 657 740 660 736 655

C731 650 744 650 746 650

C758 651 769 650 781 650

C784 650 792 651 793 648

C796 639 782 625 776 620

C753 601 722 593 692 596

C682 597 672 600 662 604

C659 606 653 608 652 611

C648 619 651 632 651 640

C651 643 650 648 653 650

C659 653 666 649 672 651

C675 652 675 655 672 656

C663 660 647 657 637 657

L552 657

L552 657

L255 657

L255 657

C217 657 180 657 142 657

C133 657 124 658 115 658

C113 658 107 658 108 654

C109 650 115 651 118 651

C123 651 146 654 148 649

C156 633 143 609 151 593

C153 588 161 592 165 588

C171 581 175 573 181 566

C199 548 227 536 253 535

C286 534 321 542 345 565

C352 572 356 581 362 589

C366 593 375 588 377 594

C379 598 378 605 378 610

C378 622 377 634 378 646

C379 652 390 654 393 649

C397 645 394 631 394 625

L394 556

L394 556

C394 499 393 441 393 384

L393 339

L393 339

C393 334 392 325 395 320

C401 312 419 319 425 312

C432 305 420 282 432 278

C438 277 446 279 452 279

C466 280 479 280 493 281

C498 281 509 281 512 285

C515 289 513 297 513 302

C513 316 514 330 514 344

C514 395 515 445 515 496

L515 560

L515 560

C515 566 512 580 520 580

C531 580 542 580 553 580

C556 580 562 581 565 579

C571 575 568 560 568 554

L568 494

L568 494

C568 489 566 476 570 473

C573 469 583 471 588 471

C606 471 623 471 641 471

C654 471 650 488 650 497

L650 554

L650 554

C650 561 648 572 652 578

C654 581 659 578 662 577

C672 574 683 572 694 571

C728 570 763 577 791 598

C799 604 807 611 814 618

C816 620 819 624 822 622

C824 621 824 617 825 615

C826 610 833 596 830 591

C827 587 817 584 813 581

C803 574 794 564 788 553

C758 500 782 429 843 413

C894 399 947 442 951 493

C952 506 951 520 946 532

C945 535 940 544 942 547

C944 549 952 548 955 548

C967 548 985 550 996 547

C1000 545 999 539 999 535

L999 498

L999 498

L999 425

L999 425

C999 412 997 397 1001 385

C1003 377 1008 385 1010 382

C1015 376 1017 359 1019 351

C1022 336 1026 321 1027 306

C1027 303 1027 292 1031 292

C1037 292 1035 306 1035 309

C1039 328 1043 347 1047 366

C1049 373 1051 379 1053 386

C1053 387 1054 392 1055 392

C1058 392 1054 380 1060 381

C1064 381 1063 387 1063 390

C1063 400 1064 409 1064 419

L1064 510

L1064 510

C1064 518 1060 538 1065 545

C1068 549 1076 547 1080 547

L1115 547

L1115 547

C1119 547 1125 548 1129 545

C1134 541 1137 524 1143 523

C1146 522 1148 526 1149 528

C1152 534 1156 540 1161 545

M436 286

C439 283 448 285 452 286

C465 287 479 288 492 288

C497 288 504 287 506 293

C509 301 507 311 507 319

C508 342 508 365 507 388

C506 445 508 502 508 559

L508 627

L508 627

C508 632 510 647 506 650

C502 652 495 650 490 650

C477 650 463 650 450 650

C446 650 436 653 434 648

C431 643 432 633 432 627

C431 609 432 590 432 572

C432 509 431 446 433 383

C434 360 435 336 433 313

C433 308 432 289 436 286

Z

M424 321

C429 322 427 335 427 339

C427 359 426 378 426 398

L426 595

L426 595

L426 634

L426 634

C426 638 427 645 425 648

C422 652 408 652 404 651

C399 649 401 636 401 632

C401 613 400 593 400 574

L400 376

L400 376

L400 341

L400 341

C400 337 399 330 401 326

C404 322 419 320 424 321

Z

M447 323

L449 339

L449 339

L449 391

L449 391

L449 584

L449 584

L449 629

L449 629

L448 643

L448 643

L445 630

L445 630

L445 585

L445 585

L445 392

L445 392

L445 339

L445 339

L447 323

L447 323

Z

M463 324

L465 340

L465 340

L464 393

L464 393

L464 586

L464 586

L464 632

L464 632

L461 645

L461 645

L460 631

L460 631

L460 586

L460 586

L460 393

L460 393

L461 340

L461 340

L463 324

L463 324

Z

M478 325

C482 324 481 336 481 338

C482 353 482 368 481 383

C479 405 481 428 481 451

C481 493 481 535 480 577

C480 595 480 612 480 630

C480 632 481 646 478 646

C475 646 476 632 476 630

L476 577

L476 577

C476 513 477 448 477 384

C477 369 476 354 476 339

C476 336 475 325 478 325

Z

M1030 325

C1034 328 1034 337 1035 342

C1039 358 1042 374 1047 389

C1048 392 1053 405 1050 408

C1043 414 1037 390 1032 389

C1022 388 1023 411 1013 409

C1009 408 1015 392 1015 389

C1021 369 1028 348 1030 328

M494 328

C497 327 497 339 497 341

C496 356 497 371 497 386

C497 450 495 513 497 577

C497 594 497 612 497 629

C497 631 498 645 494 645

C492 645 493 631 493 629

C493 612 490 596 492 579

C495 556 493 531 492 508

C491 468 493 427 493 387

C493 372 492 357 492 342

C492 339 491 329 494 328

Z

M1009 385

C1009 388 1008 391 1007 386

M1031 400

C1035 400 1038 410 1040 413

C1045 417 1051 414 1055 417

C1061 421 1057 440 1057 446

C1058 452 1060 470 1052 471

C1041 472 1030 471 1019 471

C1016 471 1009 472 1007 469

C1005 467 1006 461 1006 458

L1006 429

L1006 429

C1006 426 1005 420 1007 418

C1010 414 1018 416 1022 413

C1024 410 1027 400 1031 400

Z

M858 418

C861 420 860 429 860 432

C860 446 859 459 859 473

C859 475 859 488 857 487

C854 485 852 477 850 473

C845 463 841 452 836 442

C834 438 829 432 829 427

C830 421 854 416 858 418

Z

M866 419

C871 415 887 421 892 423

C895 424 899 426 899 429

C899 433 894 439 892 443

C886 455 879 466 873 478

C871 482 869 491 865 493

C862 494 863 479 863 477

C863 463 864 448 864 434

C864 430 862 422 866 419

Z

M1027 428

C1045 421 1059 453 1039 461

C1017 470 1005 436 1027 428

Z

M856 495

C841 489 827 475 814 465

C810 462 802 458 800 453

C797 447 813 435 817 432

C819 431 822 428 825 429

C829 431 832 443 834 447

C840 462 846 480 856 493

M869 496

C875 481 884 468 891 454

C894 448 897 437 903 432

C908 428 929 447 927 453

C925 458 915 463 911 466

C897 475 883 485 871 496

M1028 443

C1023 443 1029 448 1032 447

C1035 446 1036 436 1040 438

C1052 442 1039 459 1029 457

C1016 454 1018 431 1031 432

C1039 433 1032 442 1030 445

M1160 542

C1161 539 1160 535 1162 532

C1164 529 1170 529 1173 525

C1185 509 1197 495 1215 484

C1222 480 1236 479 1242 473

C1245 470 1244 463 1245 459

C1247 452 1251 448 1256 443

C1257 442 1259 436 1262 437

C1264 437 1266 440 1267 442

C1272 447 1276 451 1278 458

C1279 462 1279 470 1282 473

C1284 476 1290 476 1294 478

C1302 481 1311 484 1318 489

C1335 500 1341 515 1354 529

C1358 533 1365 529 1368 534

C1371 539 1367 545 1370 550

C1372 554 1378 552 1379 556

C1382 562 1379 569 1379 575

C1379 593 1380 610 1381 628

C1381 634 1379 644 1382 649

C1383 652 1388 651 1391 651

L1419 651

L1419 651

C1421 651 1430 650 1429 655

C1429 658 1424 658 1422 658

C1414 658 1406 658 1398 658

C1366 655 1332 657 1299 657

L873 657

L873 657

M1259 449

C1268 444 1278 468 1271 471

C1267 473 1253 473 1251 470

C1247 465 1254 452 1259 449

Z

M850 498

C834 496 818 494 802 492

C798 491 788 492 785 488

C780 484 788 468 791 463

C792 461 793 457 796 457

C801 457 807 465 810 467

C822 477 843 486 851 499

M931 458

C933 458 935 462 936 464

C938 468 946 486 942 490

C938 493 929 493 925 493

C913 494 902 496 890 497

C886 498 880 500 876 499

C874 499 885 490 887 489

C897 481 908 473 919 465

C922 463 927 457 931 458

Z

M576 478

C582 474 600 478 606 478

C614 478 622 478 630 477

C633 477 638 476 641 478

C644 480 644 491 644 494

C645 510 644 526 644 542

L644 573

L644 573

C644 577 645 582 641 585

C631 592 619 597 609 604

C606 606 601 612 597 612

C594 612 595 607 595 605

C595 599 597 590 594 585

C591 578 579 585 575 579

C573 577 574 570 574 567

C574 556 574 544 575 533

C576 519 573 505 575 491

C575 488 574 480 576 478

Z

M1007 570

C1003 559 1006 543 1006 531

L1006 499

L1006 499

C1006 494 1004 483 1007 480

C1009 477 1015 478 1018 478

L1045 478

L1045 478

C1048 478 1053 477 1055 479

C1059 482 1057 494 1057 498

C1057 516 1058 535 1058 553

C1058 556 1060 572 1057 574

C1055 575 1051 567 1050 566

C1046 560 1039 544 1032 541

C1028 540 1026 545 1024 547

C1018 555 1012 563 1007 572

M1345 530

C1303 530 1261 528 1219 528

C1209 528 1199 527 1189 528

C1187 528 1180 530 1180 527

C1179 524 1185 518 1187 516

C1196 505 1208 495 1221 489

C1270 464 1319 488 1347 530

M1022 490

C1026 489 1027 495 1027 497

C1027 505 1027 512 1027 520

C1027 522 1027 527 1024 527

C1020 528 1020 522 1020 520

C1020 515 1017 492 1022 490

Z

M1036 490

C1040 488 1041 494 1041 496

C1041 504 1042 513 1041 521

C1041 523 1040 528 1038 528

C1034 529 1034 525 1034 523

C1034 515 1034 507 1034 499

C1034 496 1034 492 1036 490

Z

M852 504

C837 509 823 514 808 520

C802 522 793 527 787 527

C780 527 782 506 782 502

C782 500 781 496 784 494

C787 492 798 495 802 496

C818 498 835 501 851 502

M874 503

C890 503 906 500 922 498

C927 497 937 494 942 496

C945 497 944 502 944 504

C944 509 944 529 938 530

C933 531 924 525 920 523

C906 517 890 509 875 505

M852 511

C842 525 830 538 819 551

C816 554 811 564 806 564

C799 564 792 546 789 541

C788 538 786 535 788 532

C793 528 803 526 809 524

C824 519 838 512 853 508

M874 510

C876 508 881 511 883 512

C891 516 900 519 908 523

C916 526 924 529 932 533

C935 534 938 537 935 541

C932 544 927 536 923 541

C919 545 917 556 912 558

C908 560 904 552 902 550

C895 540 887 531 880 521

C879 520 871 511 874 510

Z

M859 517

C860 516 860 528 860 532

L860 574

L860 574

C860 577 862 586 860 589

C857 593 840 588 841 583

C843 563 856 543 858 523

M863 518

C866 516 868 530 869 533

C873 546 877 558 880 571

C881 575 884 581 883 585

C881 590 865 592 864 586

C860 566 864 541 864 520

M851 518

C853 519 844 528 842 530

C834 539 826 549 819 558

C817 561 811 566 811 569

C811 574 831 587 834 582

C838 577 839 566 840 560

C844 547 849 534 852 520

M861 519

L861 521

L861 521

M874 521

C875 520 876 524 877 524

C880 528 883 533 887 537

C898 551 921 571 896 582

C889 585 888 577 887 572

C884 560 881 548 877 536

C877 534 872 521 874 521

Z

M1143 532

C1139 544 1130 553 1127 565

C1123 582 1126 603 1126 620

C1126 627 1127 635 1127 642

C1127 644 1126 648 1129 650

C1134 653 1149 650 1155 650

C1157 650 1161 651 1163 649

C1166 644 1164 633 1164 628

C1164 610 1170 584 1164 567

C1160 555 1149 545 1145 533

M1233 534

C1247 533 1262 535 1276 535

C1296 535 1316 534 1336 536

C1343 537 1354 536 1360 539

C1363 540 1363 550 1360 551

C1356 553 1350 551 1346 551

C1336 550 1326 551 1316 551

C1278 551 1239 549 1201 551

C1192 551 1180 553 1171 551

C1166 549 1166 542 1168 538

C1170 535 1180 536 1184 535

C1200 534 1217 536 1233 534

Z

M260 542

C287 542 311 548 333 564

C340 569 346 575 350 582

C352 584 355 589 351 591

C339 594 322 590 310 590

C278 590 247 591 215 590

C205 589 196 589 186 590

C184 590 177 591 175 589

C171 585 187 570 190 567

C209 550 235 542 260 542

Z

M926 550

C931 549 933 568 933 571

C934 591 933 611 933 631

C933 636 935 649 929 650

C926 651 917 652 915 649

C912 645 914 634 914 629

C914 610 914 592 915 573

C915 568 921 551 926 550

Z

M1031 551

C1035 551 1043 567 1045 570

C1049 576 1055 582 1057 588

C1061 599 1058 617 1058 628

C1058 633 1060 646 1057 649

C1055 652 1048 651 1047 649

C1043 642 1042 619 1028 624

C1021 627 1019 634 1018 641

C1017 645 1018 651 1012 651

C1001 651 1005 633 1005 626

C1005 614 1002 598 1006 587

C1008 580 1014 572 1019 566

C1021 563 1027 551 1031 551

Z

M954 555

C965 555 987 550 997 555

C1002 557 1001 579 994 580

C982 582 968 580 956 580

C952 580 946 581 942 580

C939 578 936 558 939 556

C941 554 951 555 954 555

Z

M1067 555

C1069 553 1076 554 1079 554

L1110 554

L1110 554

C1113 554 1120 553 1122 555

C1124 556 1120 577 1118 578

C1116 581 1110 580 1107 580

L1078 580

L1078 580

C1075 580 1069 581 1066 579

C1063 576 1063 558 1067 555

Z

M1227 557

C1261 555 1295 556 1329 558

C1342 559 1357 556 1370 559

C1374 560 1373 565 1373 568

L1373 596

L1373 596

C1373 599 1374 605 1372 607

C1369 610 1362 608 1358 607

C1354 607 1346 609 1342 606

C1337 602 1340 585 1340 579

C1340 577 1341 565 1335 568

C1330 571 1333 591 1333 596

C1333 599 1334 604 1330 606

C1315 610 1320 586 1319 578

C1319 576 1320 565 1315 567

C1312 568 1313 574 1313 577

C1313 586 1317 613 1300 604

C1295 602 1298 580 1298 575

C1298 573 1298 566 1295 566

C1290 566 1291 574 1291 577

C1291 587 1296 608 1280 604

C1273 602 1277 581 1277 575

C1277 572 1277 566 1273 566

C1269 566 1270 575 1270 577

C1270 586 1275 607 1260 604

C1251 602 1255 583 1255 576

C1255 574 1256 566 1252 566

C1247 566 1248 574 1248 577

C1248 586 1253 607 1238 605

C1230 604 1234 582 1234 576

C1234 573 1234 566 1230 566

C1226 566 1227 575 1227 577

C1227 586 1232 608 1216 604

C1210 602 1213 581 1213 576

C1213 574 1214 568 1211 567

C1207 566 1206 573 1206 575

C1206 581 1209 603 1203 605

C1189 609 1193 585 1193 577

C1193 575 1194 567 1190 567

C1186 567 1186 574 1186 576

C1187 583 1191 615 1173 605

C1170 603 1171 598 1171 595

C1171 586 1171 578 1171 569

C1171 567 1168 560 1171 559

C1174 557 1181 558 1185 557

C1199 556 1213 557 1227 557

Z

M1145 571

C1153 571 1152 601 1146 601

C1137 601 1141 582 1141 577

C1141 575 1142 571 1145 571

Z

M1005 571

L1005 572

L1005 572

M697 577

C732 573 768 588 794 609

C801 614 815 624 819 632

C821 637 816 649 811 650

C798 652 794 629 786 621

C769 603 746 593 722 590

C692 587 661 593 636 612

C629 617 623 623 619 631

C613 642 616 651 600 650

C594 649 595 644 595 639

C595 626 597 622 608 614

C635 593 663 582 697 577

Z

M908 646

C908 646 908 650 907 648

C905 646 904 640 904 637

C901 626 898 616 895 605

C894 602 891 595 893 592

C894 590 906 583 908 586

C909 590 908 597 908 601

C908 614 911 631 907 643

M1019 586

C1022 585 1024 589 1025 591

C1026 596 1027 614 1022 616

C1019 617 1017 614 1016 611

C1015 606 1014 589 1019 586

Z

M1037 586

C1041 584 1043 588 1044 591

C1045 596 1046 613 1040 616

C1037 617 1034 615 1034 612

C1032 607 1032 589 1037 586

Z

M1067 587

C1069 586 1075 587 1078 587

C1088 587 1097 587 1107 587

C1111 587 1117 585 1119 588

C1123 595 1120 612 1120 619

L1120 642

L1120 642

C1120 644 1121 648 1118 650

C1116 651 1111 651 1108 651

C1098 651 1088 651 1078 650

C1074 650 1068 652 1066 649

C1062 643 1065 625 1065 618

L1065 595

L1065 595

C1065 593 1064 589 1067 587

Z

M517 588

C520 586 527 587 531 587

C544 587 558 587 571 588

C575 588 584 586 587 590

C591 595 588 611 588 618

C588 624 591 645 586 649

C583 652 575 650 571 650

C558 650 545 651 532 651

C528 651 519 653 516 649

C512 644 515 625 515 618

C515 612 512 592 517 588

Z

M999 649

L986 651

L986 651

L954 651

L954 651

L940 649

L940 649

L940 634

L940 634

L940 603

L940 603

L940 589

L940 589

L953 587

L953 587

L986 587

L986 587

L998 588

L998 588

L999 601

L999 601

L999 636

L999 636

L1000 646

L1000 646

L1001 639

L1001 639

M839 594

L851 596

L851 596

L875 596

L875 596

L885 596

L885 596

L892 619

L892 619

L898 642

L898 642

L898 650

L898 650

L881 651

L881 651

L841 651

L841 651

L824 649

L824 649

L826 636

L826 636

L834 605

L834 605

L839 594

L839 594

Z

M163 596

C177 594 192 596 206 596

C236 596 266 597 296 597

C312 597 329 597 345 598

C353 598 360 596 368 598

C372 600 371 606 371 610

L371 640

L371 640

C371 643 372 649 368 650

C360 654 344 651 335 651

C332 651 327 652 325 649

C322 647 323 642 323 639

C321 633 318 628 313 624

C297 613 273 613 255 614

C243 615 223 617 213 624

C209 628 205 632 204 638

C203 641 204 647 201 649

C199 652 194 651 191 651

C181 651 168 653 159 651

C154 649 156 641 156 637

C156 627 151 598 163 596

Z

M956 602

C961 603 961 624 956 624

C949 624 950 601 956 602

Z

M978 601

C984 601 984 624 979 625

C971 625 972 601 978 601

Z

M1103 602

C1110 601 1111 626 1104 628

C1095 629 1095 603 1103 602

Z

M1083 602

C1090 600 1090 626 1084 628

C1075 629 1077 604 1083 602

Z

M1187 612

C1244 611 1302 612 1359 614

C1362 614 1371 614 1373 617

C1377 621 1374 636 1374 642

C1374 644 1375 648 1372 650

C1370 652 1365 651 1362 651

L1337 651

L1337 651

C1334 651 1328 652 1326 649

C1320 642 1324 621 1308 624

C1301 625 1296 632 1295 639

C1293 644 1294 650 1288 651

C1275 652 1281 617 1262 624

C1250 628 1253 652 1242 651

C1229 650 1238 622 1219 623

C1203 624 1208 640 1202 649

C1199 652 1177 652 1173 650

C1171 648 1171 645 1171 642

C1171 636 1168 618 1173 614

C1175 611 1183 612 1187 612

Z

M642 617

C646 617 644 632 644 635

C644 639 645 646 643 649

C640 653 627 652 623 651

C618 649 621 643 622 640

C624 634 634 615 642 617

Z

M263 621

C277 620 296 621 308 629

C313 632 323 649 312 651

C289 655 262 651 238 651

C231 651 217 654 211 650

C204 645 213 633 217 630

C229 621 249 621 263 621

Z

M1218 630

C1226 628 1233 647 1225 650

C1222 651 1213 651 1211 648

C1206 644 1213 631 1218 630

Z

M1029 631

C1035 630 1043 647 1036 650

C1022 655 1020 634 1029 631

Z

M1263 631

C1271 628 1277 647 1271 650

C1256 658 1250 636 1263 631

Z

M1307 631

C1315 627 1322 647 1316 650

C1300 658 1294 637 1307 631

Z

"/>

</svg>

